<?xml version="1.0" encoding="utf-8"?>
<!-- Generator: Adobe Illustrator 25.1.0, SVG Export Plug-In . SVG Version: 6.00 Build 0)  -->
<svg version="1.1" id="圖層_1" xmlns="http://www.w3.org/2000/svg" xmlns:xlink="http://www.w3.org/1999/xlink" x="0px" y="0px"
	 viewBox="0 0 612 792" style="enable-background:new 0 0 612 792;" xml:space="preserve">
<style type="text/css">
	.st0{fill:#FF6633;stroke:#CC0033;stroke-width:0.5;stroke-miterlimit:10;}
	.st1{fill:#FFCC00;stroke:#CC0033;stroke-miterlimit:10;}
	.st2{stroke:#CC0033;stroke-miterlimit:10;}
	.st3{stroke:#CC0033;stroke-width:0.5;stroke-miterlimit:10;}
	.st4{fill:#FFCC00;stroke:#CC0033;stroke-width:0.5;stroke-miterlimit:10;}
	.st5{fill:#00BAEB;stroke:#CC0033;stroke-width:0.5;stroke-miterlimit:10;}
</style>
<rect x="-436.3" y="185.2" class="st0" width="388.3" height="367.8"/>
<rect x="8.9" y="573.5" class="st1" width="381.3" height="246"/>
<rect x="447.6" y="501.3" class="st2" width="294.2" height="402"/>
<rect x="-28.9" y="-155.7" class="st3" width="68" height="106.3"/>
<polygon class="st4" points="-70.8,526.5 -66.6,522.2 -62.3,526.5 "/>
<path class="st4" d="M298.8,47.6"/>
<path class="st4" d="M298.8,56.1h85v-8.5h0c-0.6,0-1.1-1-1.1-2.1s0.5-2.1,1.1-2.1h28.3v4.3v18.4v29.8v5.4h-11.9v384.4H400h-2.8
	l-4.3-4.3l-4.3,4.3H23.5l-4.3-4.3l-4.3,4.3h-2.8h-0.3V101.2H0v-5.4V65.9V47.6v-4.3h28.3c0.8,0,0.9,1,0.9,2.1s-0.1,2.1-0.9,2.1h0v8.5
	h85l0-10.7c0-1.1,0.9-2,2-2h181.4c1.1,0,2,0.9,2,2.1L298.8,56.1z"/>
<ellipse class="st4" cx="286.2" cy="-51.6" rx="1.4" ry="2.1"/>
<rect x="257.9" y="-53.7" class="st4" width="28.3" height="4.3"/>
<ellipse class="st4" cx="556.7" cy="-51.6" rx="1.1" ry="2.1"/>
<ellipse class="st4" cx="371.2" cy="-51.6" rx="1.1" ry="2.1"/>
<rect x="371.2" y="-53.7" class="st4" width="185.4" height="4.3"/>
<rect x="656.8" y="-17.8" class="st5" width="79.4" height="79.4"/>
<path class="st4" d="M828.7,404.5v-246h-28.3v-8.5c0.9,0,1.7-1.3,1.7-2.8c0-1.6-0.8-2.8-1.7-2.8H444.9c-0.9,0-1.7,1.3-1.7,2.8
	c0,1.6,0.8,2.8,1.7,2.8h0v8.5h-28.3v246h28.3v8.5h0c-0.9,0-1.7,1.3-1.7,2.8c0,1.6,0.8,2.8,1.7,2.8h355.5c0.9,0,1.7-1.3,1.7-2.8
	c0-1.6-0.8-2.8-1.7-2.8h0v-8.5H828.7z M529.3,149.9h186.5v8.5H529.3V149.9z M646.7,244.4v17.4c0,1.5-1.2,2.6-2.6,2.6h-42.9
	c-1.5,0-2.6-1.2-2.6-2.6v-17.4c0-1.5,1.2-2.6,2.6-2.6H644C645.5,241.7,646.7,242.9,646.7,244.4z M715.8,413H529.3v-8.5h186.5V413z
	 M762.1,331.5h-68V323h68V331.5z M762.1,267.5h-68V259h68V267.5z"/>
</svg>
